<svg xmlns="http://www.w3.org/2000/svg" version="1.0" viewBox="0 0 492 130"><path d="M113 3.7c0 .4 1.6 2.1 3.5 3.9 4.4 4 4.4 6.5.3 13-1.7 2.7-3.2 6.3-3.2 8 0 3.4 3.8 9.4 6 9.4 2 0 1.7-2.8-.6-5.7-2.6-3.4-2.6-4.1 1.2-9.7 4.3-6.6 4.4-12.3.4-16.5-2.6-2.7-7.6-4.3-7.6-2.4z"/><path d="M121 25.7c0 .4.9 1.6 2 2.8 1.1 1.1 2.3 3.5 2.6 5.2.6 2.8 0 3.8-4.4 8.5-2.7 2.9-5.2 6.3-5.6 7.4-.8 2.6 2.1 10.4 3.8 10.4 2.2 0 2.5-1.1 1-4.6-1.7-4.1-1.2-5.3 4.5-10.8 5.9-5.8 6.7-12.4 2.1-17.4-1.9-2-6-3.1-6-1.5zM75 70.1c0 3.4-.3 4-1.7 3.5-8.1-3.2-30.8-3.8-40.6-1.2-11.9 3.3-21 9.5-24.6 17C5.5 94.7 5.4 99 8 102c2.3 2.7 2.3 3 1 6.5-.8 2.2-.6 3 1.4 4.9 4.1 4.2 11.5 5.1 41.1 5.1 29.4 0 36.5-.9 41.3-5 2.7-2.4 2.7-2.4 1-5.5-1-1.8-1.8-3.5-1.8-4 0-1.4 3.1-2 5.1-1 1.6.9 1.9 2 1.7 6.8l-.3 5.7h22c24.7 0 22.8.7 21.2-7.5-.7-3.4-.5-3.6 3.8-5.9 7.3-3.8 12.2-8.8 15.5-15.4 3.1-6.3 5.6-16.8 4.6-19.3-.4-1.2-7.9-1.4-45.6-1.4H75v4.1zm86 1.9v3h-40.5c-22.3 0-40.5-.3-40.5-.8 0-.4-.3-1.7-.6-3l-.6-2.2H161v3zM49.6 79c1.7 3.2 3.4 5 4.6 5 2.3 0 2.3-1.1-.3-6.2l-2.1-4.1 6.9.7c7.3.7 8.9 1.8 12.5 8.5 1.8 3.3 4.8 4.2 4.8 1.3 0-.9-.7-2.6-1.5-3.6-2.3-3.1-1.8-3.6 2.1-2C85.9 82.5 93 90.1 93 96.2c0 2.1-.6 2.7-3.2 3.1-5 .8-78.5.3-79.3-.5-1.5-1.5.7-7.7 4.1-11.7 2.9-3.3 11.6-9.1 13.8-9.1.2 0 1.6 2 3 4.5 2.5 4.2 4.8 5.6 6 3.7.3-.5-.6-2.8-2-5.2-1.3-2.3-2.3-4.4-2.2-4.6.4-.3 9.7-2.1 12-2.3 1-.1 2.7 1.8 4.4 4.9zM159 80.1c0 2.8-5.9 11.5-9.8 14.5-9.4 7.1-23.9 10.3-36.9 8-10.8-1.9-15.3-3.9-15.3-6.8-.1-3.8-3.5-10.1-7.4-13.6L85.9 79h36.6c26.2 0 36.5.3 36.5 1.1zM21.6 105.5c1.8 1.4 1.8 1.4-.6 1.5-3.5 0-7-1.1-7-2.1 0-1.4 5.5-1 7.6.6zm15.4.5c-3.1 2.4-2.9 2.4-6.5 0l-3-2h12l-2.5 2zm21.4-.5c1.8 1.4 1.2 1.5-6.3 1.5-7.3 0-8.2-.2-7.1-1.5 1.6-2 10.8-2 13.4 0zm17.6-1c0 .2-1.4 1.2-3.1 2-2.8 1.5-3.2 1.5-6.2-.4l-3.2-2.1h6.3c3.4 0 6.2.2 6.2.5zm10 1c-.7.8-2.2 1.5-3.3 1.5-2 0-2 0-.1-1.5 2.7-2 5.1-2 3.4 0zm41.5 1.7c4.9-.6 9-1 9.1-.9.1.1.5 1.4.9 3l.7 2.7H103v-2.8c0-1.6.2-3.1.5-3.4.3-.2 3.7.2 7.7 1 6 1.2 9 1.3 16.3.4zm-37.4 3.3c0 .6-2.1 1.6-4.8 2.4-6.7 2-58.3 2.2-66.5.3-3.2-.7-5.8-1.6-5.8-2 0-1 17.1-.2 19.1.8.8.5 2.2.4 3-.1 1.8-1.1 30.5-1.2 32.7 0 2.1 1.1 18.1-.4 19.6-1.9 1.2-1.2 2.8-.9 2.7.5zm205.1-42.3c-3 3 .2 9.3 3.6 7.2 3.1-2 3.7-4.1 1.8-6.3-2.2-2.4-3.7-2.6-5.4-.9zM187 92.5V117h6V97h3.9c3.8 0 4.1.3 11.1 10 6.7 9.5 7.3 10 10.7 10h3.5l-2.4-3.2c-8.6-11.4-13.1-18.2-12.3-18.5 9.9-3.3 13.6-15.4 6.9-22.4-3.6-3.8-7.9-4.9-18.6-4.9H187v24.5zm20.3-18.4c6.3 2.9 6 13.2-.4 16.5-1.6.8-5.3 1.4-8.4 1.4H193V73h6c3.2 0 7 .5 8.3 1.1zM407 92.5V117h10.1c13.8 0 18.3-1.3 23.9-6.9 5-5.1 7-10 7-17.6 0-7.6-2-12.5-7-17.6-5.6-5.6-10.1-6.9-23.9-6.9H407v24.5zm27-17.3c5.1 3.5 7.5 9 7.5 17.3 0 5.5-.5 7.9-2.4 11.1-3.5 6.3-8.2 8.4-18 8.4H413V73h8.9c7.5 0 9.3.3 12.1 2.2zm23 17.3v24.7l11.8-.4c9.2-.3 12.4-.7 14.8-2.2 4.1-2.5 6.4-6.5 6.4-11.3 0-4.5-2-7.7-6.1-9.8l-2.9-1.6 3.5-3c4.2-3.7 5.3-8.1 3.2-13.2-2.4-5.5-6.2-7-19.4-7.5l-11.3-.4v24.7zm23-17.7c3.2 2.6 3.3 9.3.2 12.4-1.8 1.9-3.6 2.3-9.7 2.6l-7.5.4V73h7.4c5.6 0 7.9.4 9.6 1.8zm1.4 22.3c3.6 2.8 3.7 8.9.1 12.4-2.2 2.2-3.2 2.5-10.5 2.5h-8V95h7.9c6.4 0 8.3.4 10.5 2.1zM233.2 85c-5 3-7.2 7.5-7.2 14.4 0 13.8 11.3 21.3 23.6 15.7 4.9-2.2 5.9-3.5 4-5-1.1-1-2.1-.9-4.5.3-4.3 2.2-10.3 2-13.4-.4-2.2-1.7-4.7-7.2-4.7-10.3 0-.4 5.5-.7 12.1-.7h12.2l-.6-4.7c-.4-3.8-1.2-5.4-4.1-8-3.1-2.9-4.3-3.3-8.8-3.3-3.5 0-6.4.7-8.6 2zm14.3 4.5c4.6 4.6 3.5 5.5-6.5 5.5-9.4 0-10.6-.7-7.7-4.2 3.5-4.4 10.5-5.1 14.2-1.3zm21.9-5.5c-3.2 1.3-7.2 6.7-8 10.6-1.8 9.9 2.1 19.1 9.2 21.4 4.6 1.5 11.5.5 14.9-2.2 2.4-1.8 2.5-2.2 1.2-3.6-1.3-1.3-1.8-1.3-3.8.2-3.3 2.3-10 2.1-12.7-.4-4.5-4.3-4.9-15.3-.7-20.1 2.6-2.7 8-3.5 12-1.6 3.1 1.5 5.5.9 5.5-1.5 0-2.9-12.5-4.9-17.6-2.8zm25.6 16v17h5V83h-5v17zm16 5.9V129h6v-7.5c0-4.1.2-7.5.3-7.5.2 0 1.9.7 3.6 1.6 5.5 2.8 13.1.4 16.7-5.1 4.5-6.8 3.6-19.4-1.6-24.7-3.9-3.9-11.4-4-15.8-.3-3.7 3.1-4 3.1-4.4.2-.2-1.4-1.1-2.3-2.5-2.5l-2.3-.3v23zm19.7-17.4c5 3.5 5.5 16.4.8 21.1-1.8 1.8-3.5 2.4-6.6 2.4-6.8 0-7.9-1.7-7.9-12.2V91l3.3-2c3.9-2.4 7.5-2.5 10.4-.5zm23.8-4.5c-1.1.4-3.3 2.2-5 3.9-2.6 2.8-3 4-3.3 10.4-.4 9.1 1.6 13.2 7.9 16.5 3.4 1.8 5.4 2.2 9.1 1.8 5.5-.6 10.8-3.1 10.8-5.1 0-2.3-1.8-2.7-4.9-1-1.7.8-5 1.5-7.4 1.5-4.8 0-7.7-2.2-9.6-7.3C349.9 99 350 99 363 99h12v-3.4c0-3.9-3.5-9.5-7-11.3-2.8-1.4-10.5-1.6-13.5-.3zm13.7 6c3.5 4.4 2.6 5-7.7 5-8.6 0-9.4-.2-8.8-1.8 1.6-4.6 5-6.4 10.8-5.8 2.5.3 4.6 1.3 5.7 2.6zm12.8 6.5c0 2.5.1 2.5 8 2.5s8 0 8-2.5-.1-2.5-8-2.5-8 0-8 2.5z"/><path d="M3.4 114.5c-.4 1 .2 3.6 1.4 6.1L7 125h156.5l2.8-4.4c1.5-2.4 2.7-4.8 2.7-5.5 0-2.4-3.6-.9-5.8 2.4L161 121H9.2L8 118c-1.7-4.2-3.8-5.7-4.6-3.5z"/></svg>